<mxfile host="app.diagrams.net" modified="2023-12-20T05:25:30.262Z" agent="Mozilla/5.0 (Macintosh; Intel Mac OS X 10_15_7) AppleWebKit/537.36 (KHTML, like Gecko) Chrome/120.0.0.0 Safari/537.36" version="22.1.11" etag="9Xfl0-FywgOTuXnTkKcD" type="github">
  <diagram name="Page-1" id="UPGDC2i2tVyF_Fooo7w_">
    <mxGraphModel>
      <root>
        <mxCell id="0" />
        <mxCell id="1" parent="0" />
      </root>
    </mxGraphModel>
  </diagram>
</mxfile>
